<svg xmlns="http://www.w3.org/2000/svg" viewBox="0 0 68 68" id="add-items"><path d="M66.73 16.79a1.61 1.61 0 0 0-1.34-.72H50.47a8.48 8.48 0 0 1 .05 1 12 12 0 0 1-24 0v-1h-13l-1.13-4.33a6.14 6.14 0 0 0-6-4.67H2a1 1 0 0 0 0 2h4.51a4.15 4.15 0 0 1 4 3.16l7.58 29.05.55 2.12 1.59 6.1a5.78 5.78 0 1 0 5.62 1.86H49a5.77 5.77 0 1 0 4.36-2h-31L21 44.14h32.7a2.71 2.71 0 0 0 2.7-1.84q4.32-10 8.67-19.89l1.8-4.09v-.12a1.6 1.6 0 0 0-.14-1.41Z"></path><path d="M38.53 27.06a10 10 0 0 0 10-10c0-.34 0-.67-.05-1a10 10 0 0 0-19.89 0v1a10 10 0 0 0 9.94 10Zm-4.76-11h3.76v-3.75a1 1 0 0 1 2 0v3.76h3.75a1 1 0 0 1 0 2h-3.75v3.75a1 1 0 0 1-2 0v-3.75h-3.76a1 1 0 0 1 0-2Z"></path></svg>