<svg xmlns="http://www.w3.org/2000/svg" fill-rule="evenodd" stroke-linejoin="round" stroke-miterlimit="2" clip-rule="evenodd" viewBox="0 0 64 64" id="cart-trolly"><g transform="translate(-3188 -248)"><g transform="translate(0 -3)"><path d="M3199.28,297.043L3199.97,293.922C3199.97,293.922 3195.26,261 3195.26,261L3192,261C3190.9,261 3190,260.104 3190,259C3190,257.896 3190.9,257 3192,257L3197,257C3197.99,257 3198.84,257.732 3198.98,258.717L3199.59,263L3248,263C3249.11,263 3250,263.895 3250,265L3250,290C3250,291.037 3249.21,291.903 3248.17,291.992L3203.63,295.865L3203.18,297.912C3204.32,298.626 3205.2,299.712 3205.66,301L3238.34,301C3239.17,298.671 3241.39,297 3244,297C3247.31,297 3250,299.689 3250,303C3250,306.311 3247.31,309 3244,309C3241.39,309 3239.17,307.329 3238.34,305L3205.66,305C3204.83,307.329 3202.61,309 3200,309C3196.69,309 3194,306.311 3194,303C3194,299.934 3196.31,297.402 3199.28,297.043ZM3200,301C3201.1,301 3202,301.896 3202,303C3202,304.104 3201.1,305 3200,305C3198.9,305 3198,304.104 3198,303C3198,301.896 3198.9,301 3200,301ZM3244,301C3245.1,301 3246,301.896 3246,303C3246,304.104 3245.1,305 3244,305C3242.9,305 3242,304.104 3242,303C3242,301.896 3242.9,301 3244,301ZM3203.71,291.844L3246,288.166C3246,288.166 3246,267 3246,267L3200.16,267L3203.71,291.844ZM3210,273L3210,285C3210,286.104 3210.9,287 3212,287C3213.1,287 3214,286.104 3214,285L3214,273C3214,271.896 3213.1,271 3212,271C3210.9,271 3210,271.896 3210,273ZM3218,273L3218,284C3218,285.104 3218.9,286 3220,286C3221.1,286 3222,285.104 3222,284L3222,273C3222,271.896 3221.1,271 3220,271C3218.9,271 3218,271.896 3218,273ZM3226,273L3226,283C3226,284.104 3226.9,285 3228,285C3229.1,285 3230,284.104 3230,283L3230,273C3230,271.896 3229.1,271 3228,271C3226.9,271 3226,271.896 3226,273ZM3234,273L3234,282C3234,283.104 3234.9,284 3236,284C3237.1,284 3238,283.104 3238,282L3238,273C3238,271.896 3237.1,271 3236,271C3234.9,271 3234,271.896 3234,273Z"></path></g></g></svg>